<svg width="24" height="24" viewBox="0 0 24 24" fill="none" xmlns="http://www.w3.org/2000/svg">
<rect width="24" height="24" fill="#1E1E1E"/>
<g id="Header">
<rect x="-43.5" y="-45.5" width="1239" height="211" rx="4.5" stroke="#9747FF" stroke-dasharray="10 5"/>
<g id="Property 1=Default">
<rect x="-23.5" y="-25.5" width="1199" height="75" rx="23.5" fill="#05252C" fill-opacity="0.4"/>
<rect x="-23.5" y="-25.5" width="1199" height="75" rx="23.5" stroke="#197686"/>
<g id="Frame 1618871078">
<g id="thumb">
<rect x="-7.5" y="-5.5" width="39" height="35" rx="11.5" fill="#052F35"/>
<rect x="-7.5" y="-5.5" width="39" height="35" rx="11.5" stroke="#0E464F"/>
<g id="hugeicons:ticket-01">
<path id="Vector" d="M8.9999 3.5V20.5M2.4639 9.344C2.2159 9.344 1.9889 9.142 1.9999 8.879C2.0669 7.337 2.2549 6.333 2.7799 5.539C3.07936 5.08653 3.4549 4.68933 3.8899 4.365C5.0549 3.5 6.6999 3.5 9.9919 3.5H14.0059C17.2979 3.5 18.9429 3.5 20.1099 4.365C20.5409 4.685 20.9169 5.082 21.2189 5.539C21.7439 6.333 21.9319 7.337 21.9989 8.879C22.0099 9.142 21.7829 9.344 21.5339 9.344C20.1479 9.344 19.0239 10.533 19.0239 12C19.0239 13.467 20.1479 14.656 21.5339 14.656C21.7829 14.656 22.0099 14.858 21.9989 15.122C21.9319 16.663 21.7439 17.667 21.2189 18.462C20.9193 18.9141 20.5438 19.311 20.1089 19.635C18.9429 20.5 17.2979 20.5 14.0059 20.5H9.9929C6.7009 20.5 5.0559 20.5 3.8889 19.635C3.45426 19.3106 3.07906 18.9134 2.7799 18.461C2.2549 17.667 2.0669 16.663 1.9999 15.121C1.9889 14.858 2.2159 14.656 2.4639 14.656C3.8499 14.656 4.9739 13.467 4.9739 12C4.9739 10.533 3.8499 9.344 2.4639 9.344Z" stroke="white" stroke-width="1.5" stroke-linecap="round" stroke-linejoin="round"/>
</g>
</g>
</g>
</g>
</g>
</svg>
